<?xml version="1.0" encoding="utf-8"?>
<!-- Generator: Adobe Illustrator 16.0.0, SVG Export Plug-In . SVG Version: 6.00 Build 0)  -->
<!DOCTYPE svg PUBLIC "-//W3C//DTD SVG 1.1//EN" "http://www.w3.org/Graphics/SVG/1.1/DTD/svg11.dtd">
<svg version="1.1" xmlns="http://www.w3.org/2000/svg" xmlns:xlink="http://www.w3.org/1999/xlink" x="0px" y="0px" width="186px"
	 height="186px" viewBox="0 0 186 186" enable-background="new 0 0 186 186" xml:space="preserve">
<g id="Layer_2">
</g>
<g id="Layer_1">
	<path fill-rule="evenodd" clip-rule="evenodd" fill="#FFFFFF" d="M13.338,92.946c0-43.991,35.669-79.655,79.66-79.655
		s79.664,35.664,79.664,79.655c0,43.996-35.673,79.657-79.664,79.657S13.338,136.942,13.338,92.946z"/>
	<path fill-rule="evenodd" clip-rule="evenodd" fill="#4BBB63" d="M78.665,81.819c-2.452,3.801-7.433,8.301-14.593,8.518
		c-8.937,0.271-14.148-2.654-17.537-6.147c-7.62,7.231-11.405,14.822-11.405,22.316c0,3.552,0.669,6.714,1.841,9.457
		c3.526,8.366,11.656,12.909,19.525,12.909c5.081,0,8.873-1.475,11.623-3.711c4.39-3.57,6.109-9.076,6.109-13.617
		c0-9.34-6.28-12.877-11.711-12.877c-6.589,0-9.729,3.886-9.729,7.434c0,4.783,3.21,6.877,5.447,6.877c3.6,0,5.141-2.17,5.141-4.268
		c0-1.774-2.001-4.204-5.756-3.273c0.756-1.779,2.092-2.098,3.815-2.098c2.764,0,5.135,2.443,5.135,5.454
		c0,2.731-1.619,7.77-8.104,7.77c-4.084,0-9.458-3.179-9.458-9.753c0-4.852,3.393-12.352,14.089-12.352
		c5.146,0,10.119,2.659,13.063,7.42c1.112,1.807,1.938,3.904,2.361,6.289c0.061,0.389,0.121,0.777,0.165,1.163
		c0.47,3.745,0.188,7.464,0.188,11.192c0.024,29.805,0.037,36.57,0.04,52.187h3.42c0.033-30.579,0-59.776,0.02-88.659
		C81.473,83.247,79.988,82.327,78.665,81.819z"/>
	<path fill-rule="evenodd" clip-rule="evenodd" fill="#E82A4F" d="M105.027,109.318c0.051-0.423,0.118-0.847,0.186-1.27
		c0.46-2.589,1.299-4.897,2.508-6.858c3.188-5.173,8.363-8.244,13.951-8.244c11.634,0,15.314,8.157,15.314,13.42
		c0,7.15-5.837,10.605-10.27,10.605c-7.057,0-8.816-5.474-8.816-8.441c0-3.271,2.579-5.93,5.582-5.93
		c1.887,0,3.328,0.349,4.144,2.279c-4.077-1.002-6.249,1.633-6.249,3.563c0,2.278,1.672,4.632,5.584,4.632
		c2.429,0,5.918-2.281,5.918-7.479c0-3.845-3.402-8.082-10.568-8.082c-5.895,0-12.738,3.852-12.738,14.004
		c0,4.932,1.88,10.922,6.648,14.801c2.986,2.431,7.107,4.039,12.639,4.039c8.55,0,17.383-4.941,21.23-14.031
		c1.267-2.987,2.113-6.434,1.992-10.285c-0.303-9.639-3.657-18.608-17.235-27.085c-4.295,2.862-8.144,4.096-14.212,4.019
		c-3.645-0.039-9.29-1.842-12.665-5.011c-3.103,0.999-4.738,1.96-6.63,3.251c-0.026,29.018-0.029,61.498-0.029,91.124h3.17
		l0.01-52.831C104.49,119.509,104.518,113.384,105.027,109.318z"/>
	<path fill-rule="evenodd" clip-rule="evenodd" fill="#EF7335" d="M101.354,81.774c0-3.308,0.01-6.594,0.014-9.838
		c0-3.396-0.262-6.793,0.164-10.203c0.048-0.353,0.098-0.709,0.151-1.062c0.38-2.178,1.142-4.088,2.149-5.729
		c2.69-4.339,7.228-6.763,11.912-6.763c9.756,0,12.84,6.835,12.84,11.25c0,5.998-4.887,8.889-8.608,8.889
		c-5.924,0-7.395-4.58-7.395-7.074c0-2.75,2.163-4.967,4.678-4.967c1.582,0,2.794,0.285,3.479,1.906
		c-3.416-0.849-5.246,1.368-5.246,2.986c0,1.913,1.414,3.895,4.686,3.895c2.031,0,4.974-1.92,4.974-6.277
		c0-3.227-2.861-6.779-8.87-6.779c-4.949,0-10.692,3.227-10.692,11.745c0,4.136,1.578,9.157,5.581,12.416
		c0.39,0.313,0.816,0.606,1.253,0.888c2.364,1.523,5.427,2.498,9.343,2.498c3.274,0,6.6-0.872,9.555-2.543
		c3.506-1.979,6.506-5.09,8.252-9.224c1.067-2.514,1.683-5.394,1.683-8.631c0-9.555-7.251-25.448-26.414-25.448
		c-4.624,0-9.263,1.029-13.443,3.098c-5.928,2.939-11.005,6.947-15.012,14.164c0.272,0.249,1.27,0.977,1.541,1.236
		c4.339,4.077,8.229,10.199,9.212,17.805c0.07,0.446,0.128,0.899,0.182,1.359c0.175,1.471,0.399,3.47,0.393,4.98
		c0,2.222,0,4.437,0,6.66l-0.299,89.39l3.909-0.114C101.323,172.286,101.33,112.794,101.354,81.774z"/>
	<path fill-rule="evenodd" clip-rule="evenodd" fill="#A4CA49" d="M97.72,72.737c0-1.504-0.117-3.002-0.292-4.472
		c-0.057-0.456-0.121-0.915-0.185-1.356c-0.98-7.61-4.138-13.394-8.467-17.473c-0.274-0.253-0.563-0.493-0.85-0.733
		c-1.726-1.489-3.61-2.749-5.611-3.741c-4.147-2.047-8.731-3.064-13.316-3.064c-18.975,0-26.154,15.738-26.154,25.203
		c0,3.205,0.604,6.059,1.655,8.54c1.125,2.649,2.761,4.859,4.709,6.634c3.609,3.281,8.321,5.021,12.936,5.021
		c4.592,0,8.007-1.335,10.492-3.35c1.195-0.975,2.156-2.121,2.932-3.344c1.804-2.822,2.589-6.092,2.589-8.953
		c0-8.434-5.682-11.634-10.582-11.634c-5.951,0-8.778,3.517-8.778,6.717c0,4.313,2.898,6.208,4.92,6.208
		c3.244,0,4.638-1.958,4.638-3.85c0-1.6-1.81-3.797-5.195-2.956c0.682-1.604,1.881-1.894,3.438-1.894
		c2.502,0,4.635,2.204,4.635,4.924c0,2.473-1.454,7.01-7.317,7.01c-3.681,0-8.53-2.863-8.53-8.808
		c0-4.374,3.062-11.145,12.725-11.145c4.638,0,9.139,2.396,11.788,6.694c1.007,1.635,1.753,3.528,2.132,5.682
		c0.058,0.351,0.102,0.699,0.155,1.053c0.427,3.375,0.171,6.736,0.171,10.1c0,1.424,0,2.861,0,4.299
		c0.014,28.879,0.021,58.457,0.023,88.659h15.354L97.72,72.737z"/>
	<linearGradient id="SVGID_1_" gradientUnits="userSpaceOnUse" x1="11.6426" y1="92.9473" x2="174.3574" y2="92.9473">
		<stop  offset="0" style="stop-color:#4BBB63"/>
		<stop  offset="0.108" style="stop-color:#62BD58"/>
		<stop  offset="0.2415" style="stop-color:#79C14E"/>
		<stop  offset="0.3855" style="stop-color:#A4CA49"/>
		<stop  offset="0.4244" style="stop-color:#BEC344"/>
		<stop  offset="0.4764" style="stop-color:#DCBA3F"/>
		<stop  offset="0.506" style="stop-color:#E7B73D"/>
		<stop  offset="0.5091" style="stop-color:#E7B53D"/>
		<stop  offset="0.5725" style="stop-color:#EF9038"/>
		<stop  offset="0.6061" style="stop-color:#F28236"/>
		<stop  offset="0.618" style="stop-color:#F17F36"/>
		<stop  offset="0.678" style="stop-color:#EF7335"/>
		<stop  offset="0.7146" style="stop-color:#EE6B37"/>
		<stop  offset="0.7772" style="stop-color:#ED613A"/>
		<stop  offset="0.806" style="stop-color:#EC5A3D"/>
		<stop  offset="0.8599" style="stop-color:#EA5241"/>
		<stop  offset="0.8975" style="stop-color:#EB474A"/>
		<stop  offset="0.9393" style="stop-color:#EB3F50"/>
		<stop  offset="0.9718" style="stop-color:#E9314F"/>
		<stop  offset="1" style="stop-color:#E82A4F"/>
	</linearGradient>
	
		<path fill-rule="evenodd" clip-rule="evenodd" fill="none" stroke="url(#SVGID_1_)" stroke-width="3.3896" stroke-miterlimit="10" d="
		M13.338,92.946c0-43.991,35.669-79.655,79.66-79.655s79.664,35.664,79.664,79.655c0,43.996-35.673,79.657-79.664,79.657
		S13.338,136.942,13.338,92.946z"/>
</g>
<g id="Layer_3">
</g>
</svg>
